# xmcd
#
# Track frame offsets: 
#        150
#        9937
#        25836
#        43709
#        63391
#        81005
#        98929
#        114834
#        128008
#        144338
#        161287
#        174259
#        194083
#        208424
#
# Disc length: 2944 seconds
#
# Revision: 1
# Processed by: cddbd v1.5.2PL0 Copyright (c) Steve Scherf et al.
# Submitted via: ExactAudioCopy v1.0b3
#
DISCID=b20b7e0e
DTITLE=The Henhouse Prowlers - Direct from Chicago - Live
DYEAR=2012
DGENRE=Bluegrass
TTITLE0=Silver Eagle
TTITLE1=Caroline
TTITLE2=Sunny Side of the Mountain
TTITLE3=Ain't it a Shame
TTITLE4=Syracuse
TTITLE5=Why you been gone so long
TTITLE6=Sledd Ridin'
TTITLE7=Soul Saver
TTITLE8=Don't give your heart to a Rambler
TTITLE9=Fireball-I hope you have learned
TTITLE10=Slippery when wet
TTITLE11=Shenendoah Valley Breakdown-Category Stomp
TTITLE12=Home Grown Tomatoes
TTITLE13=Rollin' in my sweet baby's arms
EXTD=
EXTT0=
EXTT1=
EXTT2=
EXTT3=
EXTT4=
EXTT5=
EXTT6=
EXTT7=
EXTT8=
EXTT9=
EXTT10=
EXTT11=
EXTT12=
EXTT13=
PLAYORDER=
